<svg xmlns="http://www.w3.org/2000/svg" width="48.53" height="48.41" viewBox="0 0 48.53 48.41"><defs><style>.cls-1 { fill: #fcb117; fill-rule: evenodd; }</style></defs><path id="линкедин" d="M11.3 15.56H1.56a.78.78 0 0 0-.78.8v31.27a.78.78 0 0 0 .78.78h9.74a.78.78 0 0 0 .78-.77V16.35a.78.78 0 0 0-.78-.8zM6.44 0a6.42 6.42 0 1 0 6.42 6.43A6.43 6.43 0 0 0 6.44 0zm29.64 14.8a11.46 11.46 0 0 0-8.56 3.58v-2.03a.78.78 0 0 0-.78-.8H17.4a.78.78 0 0 0-.77.8v31.28a.78.78 0 0 0 .78.78h9.73a.78.78 0 0 0 .78-.77V32.15c0-5.2 1.43-7.25 5.07-7.25 3.96 0 4.27 3.26 4.27 7.52v15.2a.78.78 0 0 0 .8.8h9.7a.78.78 0 0 0 .8-.8V30.48c0-7.76-1.5-15.68-12.46-15.68z" class="cls-1"/></svg>