<svg xmlns="http://www.w3.org/2000/svg" width="49.09" height="49.12" viewBox="0 0 49.09 49.12"><defs><style>.cls-1 { fill: #69696b; fill-rule: evenodd; }</style></defs><path id="трубка" d="M49.06 38.77a2.35 2.35 0 0 1-.72 2.08l-6.92 6.87a3.95 3.95 0 0 1-1.22.88 4.8 4.8 0 0 1-1.48.47c-.03 0-.14 0-.3.03s-.4.02-.7.02a23.14 23.14 0 0 1-3.18-.34 24.05 24.05 0 0 1-5.4-1.66 45.64 45.64 0 0 1-7.26-3.98 53.77 53.77 0 0 1-8.63-7.3A55.68 55.68 0 0 1 7.22 29a47.58 47.58 0 0 1-3.85-6.06 31.9 31.9 0 0 1-2.18-5.05 25.92 25.92 0 0 1-1-3.9A13.56 13.56 0 0 1 0 11.4l.04-1.05A5.18 5.18 0 0 1 .5 8.87a3.97 3.97 0 0 1 .9-1.22L8.3.73A2.28 2.28 0 0 1 9.98 0a1.96 1.96 0 0 1 1.2.4 3.52 3.52 0 0 1 .88.95l5.56 10.57a2.48 2.48 0 0 1 .27 1.82A3.16 3.16 0 0 1 17 15.4l-2.56 2.55a.82.82 0 0 0-.18.34 1.4 1.4 0 0 0-.08.38 9.35 9.35 0 0 0 .94 2.5 23.7 23.7 0 0 0 1.92 3.04 49.18 49.18 0 0 0 7.85 7.86 24.6 24.6 0 0 0 3.03 1.95 8.3 8.3 0 0 0 1.87.76l.65.12a1.3 1.3 0 0 0 .34-.08.82.82 0 0 0 .33-.18l2.96-3.02a3.17 3.17 0 0 1 2.18-.83 2.7 2.7 0 0 1 1.4.32h.05l10.03 5.93a2.57 2.57 0 0 1 1.3 1.72z" class="cls-1"/></svg>