<svg xmlns="http://www.w3.org/2000/svg" width="78.18" height="45.22" viewBox="0 0 78.18 45.219"><defs><style>.cls-1 { fill: #69696b; fill-rule: evenodd; }</style></defs><path id="Forma_1" d="M74.9 45.23H3.3a3.3 3.3 0 0 1-3.3-3.3V39.9a.95.95 0 0 1 .95-.96h5.18V3.44A3.44 3.44 0 0 1 9.57 0h59.05a3.44 3.44 0 0 1 3.43 3.44v35.5h5.18a.96.96 0 0 1 .96.95v2.04a3.3 3.3 0 0 1-3.3 3.3zm-73-4.4v1.1a1.4 1.4 0 0 0 1.4 1.4h71.6a1.38 1.38 0 0 0 1.38-1.4v-1.1H1.9zm66.1-1.9h2.15V3.44a1.53 1.53 0 0 0-1.53-1.52H9.57a1.54 1.54 0 0 0-1.54 1.54v35.5h2.15v-1.67a.96.96 0 0 1 .96-.96H21.3a.95.95 0 0 1 .95.97v1.67h33.68v-1.67a.95.95 0 0 1 .95-.96h10.16a.96.96 0 0 1 .96.97v1.67zm-10.16 0h8.25v-.7h-8.26v.7zm-45.75 0h8.24v-.7H12.1v.7zm54.94-3.98h-55.9a.96.96 0 0 1-.96-.95V4.68a.96.96 0 0 1 .96-.96h55.9a.96.96 0 0 1 .96.96V34a.96.96 0 0 1-.96.95zm-54.95-1.9h54V5.63h-54v27.42z" data-name="Forma 1" class="cls-1"/></svg>