<svg xmlns="http://www.w3.org/2000/svg" width="56.22" height="48.91" viewBox="0 0 56.22 48.91"><defs><style>.cls-1 { fill: #69696b; fill-rule: evenodd; }</style></defs><path id="телеграм" d="M1 23.42l12.94 4.83 5.02 16.1a1.52 1.52 0 0 0 2.42.74l7.22-5.9a2.15 2.15 0 0 1 2.62-.06l13.02 9.44a1.52 1.52 0 0 0 2.4-.92L56.16 1.8A1.52 1.52 0 0 0 54.13.1L.98 20.58a1.52 1.52 0 0 0 0 2.84zm17.15 2.26l25.3-15.57a.44.44 0 0 1 .54.7L23.1 30.2a4.3 4.3 0 0 0-1.34 2.6l-.7 5.26a.66.66 0 0 1-1.3.1l-2.73-9.6a2.56 2.56 0 0 1 1.12-2.88z" class="cls-1"/></svg>