<svg xmlns="http://www.w3.org/2000/svg" width="49.53" height="49.4" viewBox="0 0 49.53 49.4"><defs><style>.cls-1 { fill: #69696b; fill-rule: evenodd; }</style></defs><path id="вайбер" d="M24.77 3.97c.57.43 1.07.47 2.55.56a17.1 17.1 0 0 1 10.2 3.43 17.58 17.58 0 0 1 7 11.4 27.3 27.3 0 0 1 .43 3.9 4.3 4.3 0 0 0 .32 1.94 2.23 2.23 0 0 0 1.78 1.13 1.77 1.77 0 0 0 .23 0 2.22 2.22 0 0 0 1.73-.78c.55-.66.55-1.27.5-2.6a26.12 26.12 0 0 0-2.66-10.9 19.58 19.58 0 0 0-4.2-5.63 20.42 20.42 0 0 0-6.12-4.3 20.1 20.1 0 0 0-7.1-1.96C28.88.1 27.86.02 27.16 0c-1.35-.05-1.88-.02-2.5.54a2.22 2.22 0 0 0-.7 1.74 2.2 2.2 0 0 0 .8 1.7zm13.58 17.67c0 1.16.1 2.25 1.23 2.8a2.6 2.6 0 0 0 1.12.25 2.27 2.27 0 0 0 .97-.2 2.65 2.65 0 0 0 1.1-1.2 12.35 12.35 0 0 0 .07-3.26A15.66 15.66 0 0 0 28.67 6.1c-1.7-.26-3-.35-3.73.8a2.2 2.2 0 0 0 .18 2.74 2.87 2.87 0 0 0 2.04.83 14.4 14.4 0 0 1 5.73 1.67 10.85 10.85 0 0 1 5.45 9.5zm-4.4-7.07a8.5 8.5 0 0 0-4.16-2.04 11.64 11.64 0 0 0-1.47-.17 2.42 2.42 0 0 0-1.5.2 2.23 2.23 0 0 0-.7 3.44 2.8 2.8 0 0 0 2.1.86c1.78.22 2.78.8 3.34 2a6.48 6.48 0 0 1 .55 2.22 2.26 2.26 0 0 0 2.3 2.38 2.27 2.27 0 0 0 1.5-.53c.82-.74.86-1.66.64-3.1a8.36 8.36 0 0 0-2.6-5.26zM49.5 39.83a3.97 3.97 0 0 0-.9-2.4 56.75 56.75 0 0 0-5.7-4.53c-1.24-.84-3.18-2.02-4.1-2.48a5.14 5.14 0 0 0-4.02-.35 5.52 5.52 0 0 0-.7.3 7.4 7.4 0 0 0-2.13 2.08l-1.24 1.5c-.1.04-.24.13-.43.2-.77.36-2.02.07-4.07-.92a21.03 21.03 0 0 1-5.02-3.47 22.33 22.33 0 0 1-3.82-4.37 12.1 12.1 0 0 1-1.86-5 2.8 2.8 0 0 1 .36-1.25l.08-.08.2-.2c.28-.24.7-.6 1.13-.93 1.9-1.5 2.5-2.1 2.82-3.23.3-1.02.03-2.3-.87-4-1.33-2.56-5.57-7.98-7.34-9.13a6 6 0 0 0-1.12-.54 5.2 5.2 0 0 0-2.42-.2c-.9.18-1.88.74-4.05 2.32A18.03 18.03 0 0 0 .8 6.55C-.4 8.5-.1 10.2.98 13.07a54.62 54.62 0 0 0 3.86 8.18l.08.13c.3.53.63 1.07.96 1.6l.1.14c.32.53.66 1.05 1 1.58l.57.8c.2.3.4.6.62.9.42.6.86 1.18 1.3 1.76A62.08 62.08 0 0 0 26.3 43.42l.26.17c.95.57 1.96 1.15 3 1.7l.4.23c1.1.58 2.1 1.1 3.14 1.57l.32.15c1.22.56 2.33 1.05 3.4 1.48a6.7 6.7 0 0 0 2.8.68h.53a6.3 6.3 0 0 0 1.62-.27 8.13 8.13 0 0 0 2.2-1.13l.44-.3a7.12 7.12 0 0 0 .57-.46 20.17 20.17 0 0 0 2.8-3.08 10.42 10.42 0 0 0 1.36-2.24 5.04 5.04 0 0 0 .38-2.1z" class="cls-1"/></svg>