<svg xmlns="http://www.w3.org/2000/svg" width="48.44" height="48.47" viewBox="0 0 48.44 48.47"><defs><style>.cls-1{fill:#fcb117;fill-rule:evenodd}</style></defs><path id="инст" d="M6.2 0h36.02a6.07 6.07 0 0 1 6.22 6.23v36.02a6.08 6.08 0 0 1-6.22 6.22H6.2A6.07 6.07 0 0 1 0 42.25V6.23A6.06 6.06 0 0 1 6.2 0zm29.08 5.4a2.2 2.2 0 0 0-2.18 2.16v5.23a2.19 2.19 0 0 0 2.18 2.18h5.48a2.2 2.2 0 0 0 2.18-2.17V7.57a2.2 2.2 0 0 0-2.18-2.17h-5.48zm7.68 15.1H38.7a14.3 14.3 0 0 1 .62 4.16 15.07 15.07 0 0 1-30.12 0 14.3 14.3 0 0 1 .62-4.16H5.37v20.47A1.94 1.94 0 0 0 7.3 42.9h33.74a1.94 1.94 0 0 0 1.93-1.93V20.5zm-18.7-5.8A9.44 9.44 0 1 0 34 24.13a9.58 9.58 0 0 0-9.74-9.43z" class="cls-1"/></svg>