<svg xmlns="http://www.w3.org/2000/svg" width="281.21" height="300.88" viewBox="0 0 281.21 300.88"><path fill="#f8a90d" d="M0 0h281.16s1.22 9.58-9.13 18.55S0 260.2 0 260.2L185 44.88H53.67S32.15 46.54 25.26 50c-6.1 3-12.26 7.5-13.68 13.4C8.53 76 8.53 93.32 8.53 93.32H0V0"/><path fill="#616267" d="M281.21 300.88H0s-1.22-9.57 9.14-18.54 272-241.66 272-241.66L96.19 256h123.94s27.69 1.5 41.22-8.27c3.91-2.82 7.27-6.15 8.27-10.27 3.05-12.57 3.05-29.9 3.05-29.9h8.52v93.3"/><path fill="#8a8c8e" d="M190.45 123L16.17 290.1h-9s0-2 5.2-6.17 178-160.9 178-160.9M270.6 231.9s2.4 6.37-2.4 16.74c-2 4.32-6.25 7.73-10.43 10.4-8.8 5.65-25.85 5.55-25.85 5.55H88.76V259h135.08s13.26-.56 21.24-2.08c26.62-5.1 25.52-25 25.52-25"/></svg>