<svg xmlns="http://www.w3.org/2000/svg" width="495.99" height="300.88" viewBox="0 0 495.98666 300.88"><path fill="#f8a90d" d="M4.8 0h276.36s1.2 9.58-8.97 18.55C262 27.52 4.8 260.2 4.8 260.2L186.66 44.88H57.55S36.4 46.54 29.63 50c-6 3.05-12.04 7.5-13.45 13.4-3 12.57-3 29.92-3 29.92H4.82V.02"/><path fill="#616267" d="M276.4 300.88H.04s-1.2-9.57 8.98-18.54C19.18 273.37 276.4 40.68 276.4 40.68L94.55 256.02h121.82s27.22 1.5 40.52-8.27c3.84-2.82 7.15-6.15 8.13-10.27 3-12.57 3-29.9 3-29.9h8.37v93.3"/><path fill="#8a8c8e" d="M190.45 123.03L16.17 290.1H7.2s0-1.98 5.2-6.17c5.18-4.18 178.05-160.9 178.05-160.9M270.6 231.9s2.4 6.37-2.4 16.74c-1.98 4.32-6.25 7.73-10.43 10.4-8.8 5.65-25.85 5.55-25.85 5.55H88.76V259h135.08s13.26-.56 21.24-2.08c26.62-5.1 25.52-25.03 25.52-25.03"/><path fill="#616267" fill-rule="evenodd" d="M302.82 280.9c6.27.2 11.8-.36 17.96-.26-2.92-6.94-5.92-13.82-9.1-20.5-2.88 7-6 13.75-8.86 20.75zm8.85-30.37h2.78c6.9 13.96 12.64 29.76 19.5 43.52.96 1.96 2.43 3.63 2.77 5.82-2.96-.16-6.56.32-9.1-.25.1-6.16-3.18-10.96-5.57-15.44-6.33-.6-13.75-.08-20.5-.25-1.93 5.1-5.5 9.8-5.56 15.94h-6.84c7.96-15.98 15.07-32.82 22.5-49.34m141.95 19.49c-1.08 11.62 3 21.82 9.87 25.55 8.08 4.4 17.35 1.27 21.25-4.05 4.8-6.56 5.32-19.7.76-28.34-2.74-5.2-8.84-9.6-16.95-8.85-9.07.84-14.08 6.62-14.93 15.7zm20.24 30.86h-3.8c-10.08-.84-16.94-5.65-20.74-12.4-4.06-7.22-4.3-18.74.26-26.3 10.84-18.05 44.3-13.7 46.3 10.62 1.4 17.08-8.38 25.76-22.02 28.08m-37.19-45.03c-4.48-1.2-11.07-1.26-16.44-.76v17.7c4.5.25 10.26-.37 14.94-.76-.22 1.8-.7 3.35-1.02 5.06-4.33-.64-9-.95-13.66-1.27-.6 6.33-.1 13.75-.25 20.5 6.23.48 12.9-.78 18.23-2.03-.13 2.15-.56 4-1.02 5.82-7.6-.58-16.25-.1-24.28-.25 1.2-13.6 1.2-34.72 0-48.32 8.2-.16 17.1.4 24.55-.5 1.14 1.1-1 3.17-1.02 4.8m-74.66 18.98c4.56-6.03 2.76-18.88-3.54-20.74-2.27-.67-5.98-.25-8.6.5v23.8c5.3.53 9.35.12 12.14-3.56zm-11.9 6.33c-.57 5.98-.17 13.16.77 18.47-2.22.57-5.48.1-8.1.25 1.18-13.6 1.18-34.72 0-48.32 5.47 1 10.2-.84 15.93-.26 8.88.9 13.26 7.77 12.65 15.68-.7 8.96-8.88 16.05-21.25 14.17m37.7-29.34c-1.93 13.25-.63 29.73-1 44.53 6.22.48 12.88-.78 18.2-2.03-.12 2.15-.54 4-1 5.82-7.6-.58-16.27-.1-24.3-.25 1.2-13.6 1.2-34.72 0-48.32 2.64.15 5.9-.32 8.1.25"/></svg>