<svg xmlns="http://www.w3.org/2000/svg" width="62.5" height="49.12" viewBox="0 0 62.5 49.12"><defs><style>.cls-1{fill:#69696b;fill-rule:evenodd}</style></defs><path id="почта" d="M6 15.13q1.18.84 7.14 4.97t9.14 6.37c.23.16.73.5 1.48 1.06s1.4 1 1.88 1.33 1.1.7 1.82 1.13a10.55 10.55 0 0 0 2 .93 5.52 5.52 0 0 0 1.75.3h.08a5.5 5.5 0 0 0 1.74-.3 10.5 10.5 0 0 0 2-.94c.72-.43 1.32-.8 1.82-1.14s1.13-.78 1.9-1.33l1.47-1.06 16.33-11.34a16.72 16.72 0 0 0 4.26-4.3 9.23 9.23 0 0 0 1.7-5.26 5.34 5.34 0 0 0-1.66-3.94A5.4 5.4 0 0 0 56.92 0H5.57a4.98 4.98 0 0 0-4.13 1.8A7.05 7.05 0 0 0 0 6.34a8.16 8.16 0 0 0 1.9 4.76A17.37 17.37 0 0 0 6 15.13zm53 3.73Q47.58 26.6 41.65 30.9q-2 1.46-3.23 2.28a19.68 19.68 0 0 1-3.3 1.68 10.04 10.04 0 0 1-3.82.85h-.07a10.04 10.04 0 0 1-3.83-.84 19.7 19.7 0 0 1-3.3-1.68q-1.24-.82-3.23-2.28-4.7-3.46-17.34-12.04a18.34 18.34 0 0 1-3.52-3.03v27.7a5.6 5.6 0 0 0 5.58 5.58H56.9a5.6 5.6 0 0 0 5.6-5.58v-27.7a19.57 19.57 0 0 1-3.5 3.04z" class="cls-1"/></svg>