<svg xmlns="http://www.w3.org/2000/svg" width="49.28" height="49.28" viewBox="0 0 49.281 49.28"><defs><style>.cls-1{fill:#69696b;fill-rule:evenodd}</style></defs><path id="скайп" d="M47.23 28.22A22.86 22.86 0 0 0 24.65 1.8a23.32 23.32 0 0 0-3.57.27 13.8 13.8 0 0 0-19 19 23.45 23.45 0 0 0-.3 3.58A22.86 22.86 0 0 0 24.65 47.5a22.13 22.13 0 0 0 3.57-.27 13.8 13.8 0 0 0 19.03-19zM35.5 35.05a9.5 9.5 0 0 1-4.25 3.26 16.98 16.98 0 0 1-6.6 1.18 15.84 15.84 0 0 1-7.55-1.6 9.86 9.86 0 0 1-3.43-3.1A6.7 6.7 0 0 1 12.34 31a2.52 2.52 0 0 1 .8-1.87 2.9 2.9 0 0 1 2.1-.78 2.6 2.6 0 0 1 1.72.6 4.64 4.64 0 0 1 1.2 1.78 11.08 11.08 0 0 0 1.24 2.25 5.04 5.04 0 0 0 1.88 1.48 7.54 7.54 0 0 0 3.2.58 7.65 7.65 0 0 0 4.44-1.18 3.4 3.4 0 0 0 1.68-2.9 2.9 2.9 0 0 0-.9-2.22 6 6 0 0 0-2.37-1.33q-1.47-.45-3.94-.98a30.27 30.27 0 0 1-5.57-1.7 8.94 8.94 0 0 1-3.58-2.64 6.58 6.58 0 0 1-1.33-4.2 6.83 6.83 0 0 1 1.4-4.23 8.73 8.73 0 0 1 4.05-2.84 17.6 17.6 0 0 1 6.2-.98 16.7 16.7 0 0 1 4.9.65 10.78 10.78 0 0 1 3.47 1.75 7.45 7.45 0 0 1 2.02 2.3 5.08 5.08 0 0 1 .64 2.36 2.85 2.85 0 0 1-2.85 2.78 2.48 2.48 0 0 1-1.7-.52 6.7 6.7 0 0 1-1.22-1.65 7.46 7.46 0 0 0-1.98-2.5 6.13 6.13 0 0 0-3.7-.88 6.8 6.8 0 0 0-3.84.97 2.7 2.7 0 0 0-1.42 2.26 2.17 2.17 0 0 0 .48 1.4 4.02 4.02 0 0 0 1.35 1.05 9.5 9.5 0 0 0 1.77.7c.6.18 1.6.42 2.97.75 1.73.37 3.3.8 4.72 1.24a15.13 15.13 0 0 1 3.6 1.65 7.07 7.07 0 0 1 2.34 2.5 7.5 7.5 0 0 1 .84 3.7 8.03 8.03 0 0 1-1.44 4.7z" class="cls-1"/></svg>