<svg xmlns="http://www.w3.org/2000/svg" width="189.33" height="126.33" viewBox="0 0 189.333 126.333"><path fill="#FBB019" d="M181.73 21.72v26.56C181.73 54.75 176.5 60 170 60h-26.55c-6.47 0-11.72-5.25-11.72-11.72V21.72c0-6.47 5.25-11.72 11.72-11.72H170c6.5 0 11.73 5.25 11.73 11.72z"/><path fill="#FFF" d="M164.45 16.7h-15.5c-5.84 0-10.58 4.73-10.58 10.58v15.5c0 5.85 4.73 10.58 10.58 10.58h15.5c5.85 0 10.6-4.73 10.6-10.58v-15.5c0-5.85-4.75-10.6-10.6-10.6m7.2 26.37c0 3.88-3.14 7.03-7.02 7.03h-15.86c-3.88 0-7.03-3.15-7.03-7.03V27.2c0-3.9 3.15-7.04 7.03-7.04h15.86c3.88 0 7.03 3.15 7.03 7.03v15.85z"/><path fill="#FFF" d="M156.7 25.6c-5.25 0-9.5 4.27-9.5 9.52 0 5.26 4.25 9.52 9.5 9.52 5.26 0 9.52-4.26 9.52-9.52 0-5.25-4.26-9.5-9.52-9.5m0 15.67c-3.4 0-6.17-2.77-6.17-6.18 0-3.4 2.76-6.17 6.17-6.17 3.4 0 6.17 2.76 6.17 6.17 0 3.4-2.76 6.17-6.17 6.17m9.83-18.25c-1.22 0-2.2 1-2.2 2.2 0 1.24.98 2.23 2.2 2.23 1.23 0 2.22-1 2.22-2.22 0-1.22-1-2.2-2.22-2.2"/><linearGradient id="a" x1="216.61" x2="191.28" y1="-114.19" y2="-159.72" gradientUnits="userSpaceOnUse" gradientTransform="matrix(1 0 0 -1 -47.6 -43.567)"><stop offset="0" stop-color="#4845A2"/><stop offset=".19" stop-color="#8744A1"/><stop offset=".3" stop-color="#A844A1"/><stop offset=".35" stop-color="#AB429A"/><stop offset=".42" stop-color="#B43C88"/><stop offset=".51" stop-color="#C33269"/><stop offset=".6" stop-color="#D7243F"/><stop offset=".6" stop-color="#D7243E"/><stop offset=".88" stop-color="#F9A326"/><stop offset="1" stop-color="#F9DD26"/></linearGradient><path fill="url(#a)" d="M181.73 79.4v26.57c0 6.48-5.24 11.72-11.72 11.72h-26.55c-6.47 0-11.72-5.25-11.72-11.73V79.4c0-6.46 5.25-11.7 11.72-11.7H170c6.5 0 11.73 5.24 11.73 11.7z"/><path fill="#FFF" d="M164.45 74.4h-15.5c-5.84 0-10.58 4.72-10.58 10.57v15.5c0 5.85 4.73 10.6 10.58 10.6h15.5c5.85 0 10.6-4.75 10.6-10.6v-15.5c0-5.84-4.75-10.58-10.6-10.58m7.2 26.34c0 3.88-3.14 7.03-7.02 7.03h-15.86c-3.88 0-7.03-3.15-7.03-7.02V84.88c0-3.88 3.15-7.03 7.03-7.03h15.86c3.88 0 7.03 3.15 7.03 7.03v15.87z"/><path fill="#FFF" d="M156.7 83.3c-5.25 0-9.5 4.26-9.5 9.5s4.25 9.53 9.5 9.53c5.26 0 9.52-4.26 9.52-9.52s-4.26-9.5-9.52-9.5m0 15.68c-3.4 0-6.17-2.76-6.17-6.17 0-3.4 2.76-6.16 6.17-6.16 3.4 0 6.17 2.76 6.17 6.17a6.17 6.17 0 0 1-6.17 6.18m9.83-18.29c-1.22 0-2.2 1-2.2 2.2 0 1.24.98 2.23 2.2 2.23 1.23 0 2.22-1 2.22-2.22 0-1.22-1-2.2-2.22-2.2"/><path fill="#475993" d="M113.38 67.33H76.85c-3.72 0-6.73 3.02-6.73 6.74v36.53c0 3.72 3 6.73 6.73 6.73h18.02l.03-17.87h-4.64c-.6 0-1.1-.48-1.1-1.1l-.02-5.75c0-.6.5-1.1 1.1-1.1h4.63v-5.55c0-6.46 3.94-9.98 9.7-9.98h4.73c.6 0 1.1.5 1.1 1.1v4.86c0 .6-.5 1.1-1.1 1.1h-2.9c-3.13 0-3.74 1.48-3.74 3.67v4.8h6.9c.64 0 1.15.6 1.08 1.24l-.7 5.76c-.05.55-.52.96-1.08.96h-6.17l-.04 17.87h10.72c3.72 0 6.74-3.02 6.74-6.74V74.06c0-3.72-3.02-6.74-6.74-6.74z"/><path fill="#FBB019" d="M113.38 10H76.85c-3.72 0-6.73 3.02-6.73 6.74v36.52c0 3.72 3 6.74 6.73 6.74h18.02l.03-17.87h-4.64c-.6 0-1.1-.5-1.1-1.1l-.02-5.75c0-.6.5-1.1 1.1-1.1h4.63v-5.56c0-6.46 3.94-9.98 9.7-9.98h4.73c.6 0 1.1.5 1.1 1.1v4.85c0 .6-.5 1.1-1.1 1.1h-2.9c-3.13 0-3.74 1.48-3.74 3.66v4.82h6.9c.64 0 1.15.57 1.08 1.23l-.7 5.77c-.05.55-.52.96-1.08.96h-6.17L102.65 60h10.72c3.72 0 6.74-3.02 6.74-6.74V16.74c0-3.72-3.02-6.74-6.74-6.74zm-97.33 0a7.55 7.55 0 0 0-7.55 7.55v34.9A7.55 7.55 0 0 0 16.05 60h34.9a7.55 7.55 0 0 0 7.55-7.55v-34.9A7.55 7.55 0 0 0 50.95 10h-34.9zm6.1 6.22c2.58 0 4.16 1.7 4.2 3.9 0 2.18-1.63 3.92-4.25 3.92h-.04c-2.52 0-4.16-1.74-4.16-3.9 0-2.23 1.7-3.92 4.26-3.92zM44.32 26.6c4.96 0 8.66 3.22 8.66 10.17v12.96h-7.5v-12.1c0-3.03-1.1-5.1-3.82-5.1-2.08 0-3.3 1.4-3.85 2.74-.2.5-.27 1.16-.27 1.84v12.63h-7.5s.1-20.48 0-22.6h7.5v3.2c1-1.54 2.8-3.73 6.78-3.73zm-25.95.53h7.5v22.6h-7.5v-22.6z"/><path fill="#007AB9" d="M16.05 68a7.55 7.55 0 0 0-7.55 7.55v34.9a7.55 7.55 0 0 0 7.55 7.55h34.9a7.55 7.55 0 0 0 7.55-7.55v-34.9A7.55 7.55 0 0 0 50.95 68h-34.9zm6.1 6.22c2.58 0 4.16 1.7 4.2 3.9 0 2.18-1.63 3.9-4.25 3.9h-.04c-2.52.02-4.16-1.72-4.16-3.9 0-2.2 1.7-3.9 4.26-3.9zM44.32 84.6c4.96 0 8.66 3.22 8.66 10.17v12.96h-7.5v-12.1c0-3.03-1.1-5.1-3.82-5.1-2.08 0-3.3 1.4-3.85 2.74-.2.48-.27 1.16-.27 1.84v12.63h-7.5s.1-20.48 0-22.6h7.5v3.2c1-1.54 2.8-3.73 6.78-3.73zm-25.95.53h7.5v22.6h-7.5v-22.6z"/></svg>