<svg xmlns="http://www.w3.org/2000/svg" width="54.72" height="53.34" viewBox="0 0 54.719 53.344"><path fill="#69696b" fill-rule="evenodd" d="M27.35 30.65a.85.85 0 0 0-.86.85v3.22a.86.86 0 1 0 1.7 0V31.5a.85.85 0 0 0-.85-.85zm0-12.88a.86.86 0 0 0-.86.86v3.22a.86.86 0 0 0 1.7 0v-3.22a.86.86 0 0 0-.85-.86zm0 19.3a.86.86 0 0 0-.86.87v3.22a.86.86 0 0 0 1.7 0v-3.22a.86.86 0 0 0-.85-.86zm0-25.73a.85.85 0 0 0-.86.85v3.2a.86.86 0 1 0 1.7 0v-3.2a.85.85 0 0 0-.85-.86zM16.08 25.82h-3.22a.85.85 0 1 0 0 1.7h3.22a.86.86 0 1 0 0-1.7zm6.44 0H19.3a.85.85 0 1 0 0 1.7h3.22a.86.86 0 1 0 0-1.7zm6.44 0h-.75v-.75a.86.86 0 1 0-1.7 0v.75h-.76a.85.85 0 1 0 0 1.7h.75v.76a.86.86 0 1 0 1.7 0v-.75h.76a.86.86 0 1 0 0-1.7zm12.87 0h-3.2a.85.85 0 1 0 0 1.7h3.2a.86.86 0 1 0 0-1.7zm-6.43 0h-3.22a.85.85 0 1 0 0 1.7h3.22a.86.86 0 1 0 0-1.7zM47 6.42H7.7a.86.86 0 0 0-.86.85V46.1a.85.85 0 0 0 .86.84H47a.85.85 0 0 0 .85-.85V7.26A.86.86 0 0 0 47 6.4zm-.86 19.4h-1.1a.85.85 0 1 0 0 1.7h1.1v17.7H28.2v-.84a.86.86 0 1 0-1.7 0v.85H8.55v-17.7h1.08a.85.85 0 1 0 0-1.7H8.56V8.12H26.5v.85a.86.86 0 0 0 1.7 0v-.86h17.94v17.7zM47 .02a.86.86 0 0 0-.86.85v3.66a.86.86 0 0 0 1.7 0V.87A.86.86 0 0 0 47 .02zm6.85 6.4H50.2a.86.86 0 0 0 0 1.7h3.65a.86.86 0 0 0 0-1.7zM7.7 0a.86.86 0 0 0-.86.85v3.66a.86.86 0 0 0 1.72 0V.87A.86.86 0 0 0 7.7.02zM4.5 6.4H.84a.86.86 0 0 0 0 1.7H4.5a.86.86 0 0 0 0-1.7zM47 47.96a.86.86 0 0 0-.86.86v3.65a.86.86 0 1 0 1.7 0v-3.65a.86.86 0 0 0-.84-.86zm6.85-2.74H50.2a.85.85 0 1 0 0 1.7h3.65a.86.86 0 1 0 0-1.7zM7.7 47.97a.86.86 0 0 0-.86.86v3.65a.86.86 0 1 0 1.7 0v-3.65a.86.86 0 0 0-.84-.86zm-3.2-2.74H.84a.85.85 0 1 0 0 1.7H4.5a.86.86 0 1 0 0-1.7z"/></svg>