<svg xmlns="http://www.w3.org/2000/svg" width="49.28" height="49.34" viewBox="0 0 49.28 49.34"><defs><style>.cls-1{fill:#69696b;fill-rule:evenodd}</style></defs><path id="вотсап" d="M25.05 0A24.27 24.27 0 0 0 4 36.3L.04 48.28a.82.82 0 0 0 .78 1.08.76.76 0 0 0 .22-.03l13.04-3.43a24.26 24.26 0 1 0 11-45.9zm15.13 35.28l-1.44 1.44a8.45 8.45 0 0 1-6.05 2.76c-2.96 0-6.14-1.7-9.47-5.02l-8.37-8.38c-2.62-2.62-4.23-5.17-4.8-7.57a8.17 8.17 0 0 1 2.54-7.94l1.45-1.45a3.1 3.1 0 0 1 3.6-.53c2.18 1.16 4.45 4.96 4.7 5.4a3.1 3.1 0 0 1 .4 2.3 2.16 2.16 0 0 1-.98 1.3c-.66.54-1.44 1.24-1.58 1.4a2.23 2.23 0 0 0 .33 3.27l6.54 6.55a2.2 2.2 0 0 0 3.26.32 20.07 20.07 0 0 0 1.42-1.58 2.16 2.16 0 0 1 1.92-1.06 3.4 3.4 0 0 1 1.66.48c.44.26 4.24 2.53 5.4 4.7a3.05 3.05 0 0 1-.55 3.62z" class="cls-1"/></svg>