<svg xmlns="http://www.w3.org/2000/svg" width="63.66" height="519.03" viewBox="0 0 63.66 519.03">
  <path fill="#3C3A3A" d="M43.8 430.55v-.02.02zM21 0c2.65 0 5.15.76 7.25 2.06 1.17-.18 2.37-.28 3.57-.28 12.62 0 22.85 10.22 22.83 22.88 0 1.22-.1 2.4-.27 3.55 1.3 2.12 2.06 4.6 2.06 7.26 0 7.62-6.2 13.82-13.82 13.82-2.66 0-5.13-.76-7.23-2.06-1.18.18-2.38.28-3.58.28-12.62 0-22.86-10.23-22.86-22.86 0-1.2.1-2.4.28-3.57-1.3-2.1-2.06-4.6-2.06-7.25C7.18 6.2 13.38 0 21 0H0v57.74c0-1.84.48-3.38 1.47-4.62 1-1.24 2.4-1.84 4.2-1.84h52.3c1.5 0 2.86.55 3.96 1.68 1.14 1.1 1.7 2.44 1.7 4 0 1.84-.58 3.64-1.74 5.34-1.17 1.72-2.6 3.17-4.34 4.4-8.9 6.18-14.43 10.04-16.63 11.54l-1.5 1.07-1.92 1.36c-.5.35-1.1.73-1.84 1.15-.72.43-1.4.75-2.04.97-.64.23-1.23.33-1.77.33h-.08c-.54 0-1.13-.12-1.78-.32-.65-.22-1.33-.54-2.05-.97-.73-.42-1.36-.8-1.86-1.15s-1.15-.8-1.9-1.35l-1.5-1.1-9.3-6.48-7.3-5.05c-1.48-1-2.86-2.37-4.16-4.1-1.3-1.75-1.96-3.35-1.96-4.85v9.67c1.04 1.14 2.24 2.2 3.6 3.1 8.57 5.8 14.45 9.9 17.65 12.24 1.35 1 2.44 1.77 3.27 2.33.84.55 1.96 1.12 3.36 1.7 1.4.57 2.7.87 3.9.87h.08c1.2 0 2.5-.3 3.9-.87 1.4-.58 2.52-1.15 3.35-1.7.84-.56 1.93-1.33 3.3-2.33 4-2.9 9.9-7 17.7-12.24 1.34-.93 2.52-1.96 3.54-3.1V0H21zm14.8 403.02h.06V403h.02v-12.6c0-.7.06-1.38.26-1.86.2-.5.5-1.02.9-1.45.4-.45.9-.8 1.5-1.03.4-.15.86-.23 1.36-.23 2.73 0 3.8 2.08 3.8 5.12v12.1h7.53v-.02h.07v-13 .03c0-6.95-3.7-10.18-8.64-10.18h-.02c-1 0-1.86.13-2.6.36-.76.24-1.42.56-1.96.96l-.4.3c-.8.65-1.38 1.38-1.8 2.02v-3.12h-7.56v.03h-.04c.04.72.04 3.62.04 7.12 0 4.12 0 9.07-.04 12.24v3.24h7.52v-.02zM24.2 380.4h-7.56V403h7.58v-22.6h-.02zm-3.88-3.04h.04c1 0 1.86-.27 2.54-.7 1.14-.7 1.8-1.9 1.8-3.26-.05-2.2-1.63-3.9-4.2-3.9h-.04c-1.3 0-2.37.43-3.1 1.16-.77.7-1.2 1.67-1.2 2.8 0 2.17 1.64 3.9 4.16 3.9zm20.96 63.08c0 2.63-1.08 5-2.8 6.73h-.02c-1.72 1.74-4.1 2.8-6.74 2.8-5.25 0-9.5-4.25-9.5-9.5 0-2.64 1.06-5 2.78-6.74 0-.03.02-.03.02-.03 1.72-1.73 4.1-2.8 6.74-2.8l.02.04c5.23 0 9.5 4.25 9.5 9.5zm-5.2 4.35c1.1-1.13 1.8-2.66 1.8-4.36 0-3.4-2.77-6.16-6.17-6.16-1.7 0-3.22.7-4.34 1.8-1.1 1.12-1.78 2.66-1.78 4.34 0 3.4 2.76 6.18 6.16 6.18v-.02c1.7 0 3.23-.68 4.35-1.78h-.03zM23.23 298.37c.1.38.44.5.74.48.15-.02.3-.08.42-.2.13-.1.2-.23.23-.43l.73-5.38c.14-1.02.63-1.95 1.37-2.65l21.35-19.85h.02v-.02.03c.36-.33.03-.85-.37-.77-.07 0-.13.02-.2.06l-.03.02-25.13 15.47-.8.48c-.98.63-1.45 1.8-1.13 2.93l2.8 9.82zm18.32 134.4c.63 0 1.2-.25 1.6-.65v-.02c.4-.4.64-.94.64-1.56 0-1.2-1-2.2-2.2-2.2-.6 0-1.17.25-1.57.65H40c-.4.4-.64.95-.64 1.57 0 1.22 1 2.22 2.2 2.22zM53.8 491.3v.92c0 .3 0 .58-.04.86-.1.88-.32 1.86-.65 2.7-.25.6-.55 1.18-.9 1.73-1.94 3.05-5.67 5.1-9.3 4.8-1.24-.12-2.48-.33-3.57-.94l-2.17-1.15-1.28 5.77c-.17.8-.9 4.7-.9 4.7h-5.12l.8-3.8c.34-1.8.72-3.6 1.12-5.4l.58-2.68c.16-.73.6-2.32.6-2.32l-3.8-5.9v1.47c0 .88.08 1.7-.1 2.58-.98 4.62-4.45 6.4-5.9 7-3.02 1.26-6.57.84-9.1-1.27-1.73-1.45-3.23-3.38-3.7-5.64-.76-3.6-.28-7.6-.28-11.26v-3.7h4.8V490.48c0 1.47-.08 3.27.7 4.6 1.3 2.25 4.84 3.2 6.9 1.4.54-.52 1.3-1.44 1.5-2.16.25-.9.36-1.94.36-2.88 0-3.75.06-7.5.06-11.28v-.4h4.72l5.02 10.54s.77-1.54.97-2c1.26-2.65 3.45-4.93 6.4-5.55 2-.43 3.78-.42 5.72.27 1.42.53 2.65 1.45 3.75 2.46 1.75 1.6 2.83 4.3 2.83 6.74v-.96.04zm-4.86.34c-.36-2.36-2.73-4.42-5.14-4.27-.25.02-.52.05-.8.1-.54.1-1.06.25-1.44.5-1.93 1.16-2.4 3.4-3 5.4-.1.27-.37 1.6-.4 1.75 0 .05 1.42.93 1.56 1 .56.32 1.14.62 1.74.84 1.75.64 3.97.63 5.48-.6.5-.4 1.05-.97 1.36-1.53.26-.48.46-1.04.56-1.6.1-.48.15-1.08.08-1.6zm4.87-.34v.92c0 .3 0 .58-.04.86-.1.88-.32 1.86-.65 2.7-.25.6-.55 1.18-.9 1.73-1.94 3.05-5.67 5.1-9.3 4.8-1.24-.12-2.48-.33-3.57-.94l-2.17-1.15-1.28 5.77c-.17.8-.9 4.7-.9 4.7h-5.12l.8-3.8c.34-1.8.72-3.6 1.12-5.4l.58-2.68c.16-.73.6-2.32.6-2.32l-3.8-5.9v1.47c0 .88.08 1.7-.1 2.58-.98 4.62-4.45 6.4-5.9 7-3.02 1.26-6.57.84-9.1-1.27-1.73-1.45-3.23-3.38-3.7-5.64-.76-3.6-.28-7.6-.28-11.26v-3.7h4.8V490.48c0 1.47-.08 3.27.7 4.6 1.3 2.25 4.84 3.2 6.9 1.4.54-.52 1.3-1.44 1.5-2.16.25-.9.36-1.94.36-2.88 0-3.75.06-7.5.06-11.28v-.4h4.72l5.02 10.54s.77-1.54.97-2c1.26-2.65 3.45-4.93 6.4-5.55 2-.43 3.78-.42 5.72.27 1.42.53 2.65 1.45 3.75 2.46 1.75 1.6 2.83 4.3 2.83 6.74v-.96.04zm-4.86.34c-.36-2.36-2.73-4.42-5.14-4.27-.25.02-.52.05-.8.1-.54.1-1.06.25-1.44.5-1.93 1.16-2.4 3.4-3 5.4-.1.27-.37 1.6-.4 1.75 0 .05 1.42.93 1.56 1 .56.32 1.14.62 1.74.84 1.75.64 3.97.63 5.48-.6.5-.4 1.05-.97 1.36-1.53.26-.48.46-1.04.56-1.6.1-.48.15-1.08.08-1.6zm14.7-24.57v51.96H0V95.6c0 1.58.56 2.9 1.66 3.98 1.1 1.1 2.45 1.67 4 1.67h52.32l-.02.03c1.56 0 2.9-.56 4-1.68 1.1-1.1 1.67-2.44 1.67-4v371.47zm-6.8-236.6c-.18-4.13-1.08-7.83-2.7-11.03-1.17-2.28-2.28-3.76-4.25-5.68-2.1-2.04-3.73-3.18-6.2-4.36-2.63-1.24-4.5-1.64-7.2-1.97-.54-.06-1.57-.14-2.3-.16-1.35-.05-1.88 0-2.5.55-.5.43-.76 1.08-.7 1.78.02.7.32 1.3.82 1.7.58.43 1.08.48 2.58.56 4.4.25 7.2 1.2 10.3 3.47 3.8 2.78 6.2 6.66 7.1 11.52.23 1.26.35 2.33.43 3.93.03 1.1.08 1.5.33 2 .34.65 1.02 1.07 1.8 1.15h.24c.7 0 1.34-.3 1.74-.8v-.03c.53-.66.53-1.3.5-2.62zm-12.62-6.7c.86 1.54 1.36 3.5 1.36 5.4 0 1.18.1 2.28 1.25 2.85.32.17.74.24 1.14.24.36 0 .7-.06.96-.2.47-.23.94-.74 1.12-1.2.24-.6.13-2.7.06-3.3-.3-2.67-1.23-5.2-2.7-7.3-2.6-3.78-6.54-6.08-11.64-6.8-1.73-.26-3.02-.35-3.76.8-.6.88-.52 2 .18 2.78.56.63 1.36.78 2.06.83 2.04.17 4.3.83 5.8 1.7h.03c1.73 1 3.15 2.46 4.15 4.2zm-.46 3.56c-.34-2.32-1.16-3.96-2.64-5.32-1.14-1.05-2.47-1.7-4.2-2.05-.4-.08-1.08-.16-1.48-.18-.72-.04-1.02-.04-1.52.2-.63.32-1.06.9-1.2 1.6-.14.67.04 1.36.5 1.9.53.58 1.05.74 2.13.88 1.77.22 2.8.82 3.37 2.02.3.6.45 1.28.55 2.24.1.9.27 1.5.92 1.97.4.3.9.45 1.4.45.57 0 1.1-.18 1.5-.53v-.03h.03c.83-.76.86-1.7.63-3.14zm13.04-47.46c0-13.57-11-24.6-24.55-24.6S7.7 166.33 7.7 179.88c0 4.3 1.1 8.5 3.23 12.2l-4.04 12.1c-.1.3-.03.62.2.85.14.16.36.26.6.26l.2-.03 13.2-3.48c3.45 1.75 7.28 2.67 11.15 2.67 13.53 0 24.55-11.02 24.55-24.57zm-49.77-62.4c.17 1.12.5 2.45 1 3.98.5 1.53 1.22 3.25 2.22 5.13 1 1.9 2.3 3.96 3.92 6.16 1.63 2.24 3.67 4.57 6.13 7 3.1 3.14 6.03 5.64 8.77 7.44 2.77 1.8 5.23 3.14 7.4 4.04 2.16.9 4 1.48 5.5 1.7 1.5.23 2.58.35 3.24.35.3 0 .53 0 .7-.03l.34-.02c.48-.07.98-.23 1.5-.47.5-.26.93-.56 1.23-.9l7.02-7c.6-.6.83-1.32.73-2.12-.13-.7-.58-1.3-1.33-1.74l-10.2-6.05h-.05c-.35-.22-.83-.32-1.43-.32-.85 0-1.6.3-2.22.86l-3.02 3.05c-.07.08-.18.15-.33.2-.15.05-.28.08-.35.08l-.66-.13c-.44-.1-1.07-.35-1.9-.77-.83-.43-1.86-1.08-3.1-1.98-1.23-.9-2.63-2.17-4.23-3.8-1.6-1.58-2.86-3-3.74-4.2-.88-1.22-1.53-2.26-1.95-3.1-.5-.96-.8-1.8-.95-2.54 0-.1.03-.23.08-.4.06-.15.12-.27.18-.33l2.6-2.6c.47-.46.77-1.03.9-1.7.15-.66.05-1.3-.25-1.86l-5.67-10.74c-.24-.37-.54-.72-.9-.97-.35-.3-.75-.4-1.2-.4-.65 0-1.2.23-1.7.73l-7.03 7.05c-.35.3-.65.73-.9 1.25-.26.5-.4 1-.46 1.5l-.06 1.05H6.8c-.03.63.05 1.52.23 2.6zm.7 103.08c1.03 2.77 2.36 5.55 3.93 8.27l.08.14.96 1.63.1.12c.33.54.68 1.07 1.03 1.6l.57.82.63.9c.43.6.86 1.2 1.33 1.8 4.82 6.27 10.38 11.3 17 15.4l.27.18c.96.6 1.98 1.18 3.03 1.76l.42.2c1.1.6 2.12 1.1 3.17 1.6l.32.14c1.23.57 2.36 1.06 3.43 1.5 1.3.53 1.92.7 2.84.7l.53-.02c.6-.02 1.13-.1 1.63-.27.7-.2 1.42-.57 2.24-1.14l.43-.3.57-.48c.93-.8 2-1.96 2.85-3.1.44-.6 1.04-1.5 1.34-2.27.3-.7.43-1.42.4-2.1-.05-.92-.35-1.72-.95-2.42-.57-.66-4.17-3.5-5.77-4.6-1.22-.84-3.22-2.03-4.12-2.5-1.4-.68-2.73-.8-4.1-.36-.3.1-.5.2-.7.3-.67.35-1.17.9-2.15 2.1l-1.25 1.5-.46.23c-.76.33-2.04.06-4.1-.97-1.74-.82-3.3-1.9-5.07-3.5-1.5-1.33-3.02-3.08-3.85-4.43-1.18-1.87-1.9-4.05-1.9-5.05 0-.4.18-.96.36-1.26l.08-.08.2-.2 1.14-.96c1.92-1.52 2.53-2.13 2.87-3.27.32-1.06.02-2.35-.88-4.1-1.35-2.56-5.64-8.04-7.4-9.2-.3-.17-.8-.43-1.13-.53-.75-.26-1.8-.34-2.45-.2-.9.18-1.9.76-4.1 2.34-1.2.9-3.05 2.6-3.58 3.4v.02c-1.18 2-.87 3.73.2 6.63zm49 258.28c0-6.5-5.24-11.74-11.7-11.74H18.45c-6.47 0-11.72 5.24-11.72 11.73v26.57c0 6.47 5.25 11.72 11.72 11.72h26.56c6.47 0 11.72-5.25 11.72-11.72v-26.57zm.1-51.83c0-6.5-5.26-11.73-11.73-11.73H18.54c-6.47 0-11.72 5.25-11.72 11.73v26.57c0 6.48 5.25 11.73 11.72 11.73H45.1c6.47 0 11.72-5.25 11.72-11.73V427zm0-56.17c0-4.17-3.4-7.54-7.56-7.54h-34.9c-4.17 0-7.55 3.37-7.55 7.53v34.9c0 4.17 3.38 7.57 7.55 7.57h34.9c4.17 0 7.55-3.38 7.55-7.56v-34.9zm0-52.83c0-3.7-3-6.74-6.73-6.74H13.57c-3.72 0-6.74 3.04-6.74 6.74v36.53c0 3.72 3.02 6.74 6.76 6.74h18l.02-17.87h-4.64c-.6 0-1.1-.5-1.1-1.1l-.02-5.76c0-.6.5-1.1 1.1-1.1h4.64v-5.56c0-6.46 3.94-10 9.7-10H46c.6 0 1.1.5 1.1 1.1v4.9c0 .6-.5 1.1-1.1 1.1h-2.9c-3.13 0-3.73 1.5-3.73 3.67v4.82h6.87c.67 0 1.18.57 1.1 1.23l-.67 5.77c-.08.55-.55.97-1.1.97H39.4l-.04 17.85h10.72c3.74 0 6.74-3.02 6.74-6.75h.02V318zm3.7-56.82c.24-1.2-.95-2.22-2.1-1.75L4.08 280.4c-1.34.5-1.33 2.4.02 2.9l13.24 4.93 5.13 16.48c.33 1.07 1.62 1.45 2.47.75l7.38-6.04c.78-.6 1.88-.65 2.7-.07l13.3 9.67c.92.67 2.22.17 2.45-.93l9.75-46.88h.02v-.02zm-9.56 224.3c1.75 1.6 2.83 4.3 2.83 6.74v-.96V492.22c0 .3 0 .58-.04.86-.1.88-.32 1.86-.65 2.7-.25.6-.55 1.18-.9 1.73-1.94 3.05-5.67 5.1-9.3 4.8-1.24-.12-2.48-.33-3.57-.94l-2.17-1.15-1.28 5.77c-.17.8-.9 4.7-.9 4.7h-5.12l.8-3.8c.34-1.8.72-3.6 1.12-5.4l.58-2.68c.16-.73.6-2.32.6-2.32l-3.8-5.9v1.47c0 .88.08 1.7-.1 2.58-.98 4.62-4.45 6.4-5.9 7-3.02 1.26-6.57.84-9.1-1.27-1.73-1.45-3.23-3.38-3.7-5.64-.76-3.6-.28-7.6-.28-11.26v-3.7h4.8V490.48c0 1.47-.08 3.27.7 4.6 1.3 2.25 4.84 3.2 6.9 1.4.54-.52 1.3-1.44 1.5-2.16.25-.9.36-1.94.36-2.88 0-3.75.06-7.5.06-11.28v-.4h4.72l5.02 10.54s.77-1.54.97-2c1.26-2.65 3.45-4.93 6.4-5.55 2-.43 3.78-.42 5.72.27 1.42.53 2.65 1.45 3.75 2.46zm-2.03 6.16c-.36-2.36-2.73-4.42-5.14-4.27-.25.02-.52.05-.8.1-.54.1-1.06.25-1.44.5-1.93 1.16-2.4 3.4-3 5.4-.1.27-.37 1.6-.4 1.75 0 .05 1.42.93 1.56 1 .56.32 1.14.62 1.74.84 1.75.64 3.97.63 5.48-.6.5-.4 1.05-.97 1.36-1.53.26-.48.46-1.04.56-1.6.1-.48.15-1.08.08-1.6zm-.82-304.2l.03-.03c-.72-1.37-2.5-2.8-3.85-3.72v-.02c-.8-.54-1.43-.92-1.6-1.02-.55-.32-1.14-.48-1.7-.48h-.05c-.4 0-.78.08-1.1.28-.34.18-.62.45-.84.8-.56.67-1.26 1.45-1.42 1.6-.15.1-.3.2-.45.26-.44.22-.84.3-1.22.28-.53-.05-1.04-.35-1.6-.9l-6.62-6.64c-1.1-1.1-1.2-2.04-.34-3.3l.07-.08 1.5-1.33c.15-.08.28-.18.38-.28.32-.28.56-.65.66-1.05.2-.7.06-1.55-.4-2.35-.27-.44-2.55-4.28-4.77-5.46-.44-.25-.94-.37-1.44-.37h-.02c-.48 0-.97.1-1.43.33-.3.15-.56.34-.8.58l-1.47 1.48c-2.38 2.37-3.24 5.08-2.56 8.04.56 2.43 2.2 5 4.86 7.66l2.9 2.9 5.6 5.62c1.67 1.68 3.3 2.96 4.9 3.8 1.6.85 3.15 1.27 4.65 1.27 2.22 0 4.28-.92 6.14-2.8l1.45-1.45c.62-.62.92-1.42.92-2.22 0-.5-.12-.98-.37-1.43l.02.03zm-12-153.57c-1.13.78-2.6 1.18-4.43 1.18-1.34 0-2.4-.2-3.2-.58-.82-.38-1.44-.88-1.9-1.48-.43-.6-.86-1.36-1.23-2.26-.34-.78-.73-1.36-1.2-1.78-.48-.4-1.06-.6-1.74-.6-.83 0-1.53.26-2.07.78-.53.52-.83 1.15-.83 1.88 0 1.23.45 2.5 1.33 3.78.88 1.3 2.05 2.33 3.45 3.1 2 1.07 4.52 1.6 7.56 1.6 2.54 0 4.75-.38 6.6-1.18 1.84-.78 3.28-1.86 4.24-3.26.96-1.4 1.46-2.96 1.46-4.7 0-1.46-.28-2.7-.84-3.7-.55-1-1.35-1.84-2.35-2.5-.98-.65-2.18-1.2-3.6-1.65-1.4-.43-2.97-.86-4.7-1.23-1.37-.35-2.37-.57-2.97-.75-.6-.16-1.17-.4-1.77-.7-.58-.3-1.03-.65-1.36-1.05-.3-.38-.47-.85-.47-1.4 0-.86.46-1.63 1.42-2.26.96-.64 2.22-1 3.82-1 1.73 0 2.96.3 3.7.9.78.6 1.44 1.44 2 2.5.42.76.84 1.32 1.22 1.66.4.35.97.52 1.7.52.8 0 1.5-.3 2.03-.86.5-.57.8-1.23.8-1.93 0-.8-.2-1.6-.63-2.4-.42-.8-1.12-1.55-2.02-2.3-.92-.72-2.08-1.3-3.45-1.74-1.4-.43-3.02-.66-4.92-.66-2.37 0-4.44.34-6.2 1-1.75.66-3.1 1.6-4.05 2.84-.93 1.23-1.4 2.65-1.4 4.23 0 1.67.43 3.07 1.33 4.2.9 1.12 2.07 2 3.57 2.65 1.5.65 3.36 1.2 5.56 1.68 1.64.36 2.95.7 3.9 1 .98.3 1.78.75 2.38 1.33.6.57.9 1.3.9 2.22h.02v.02c0 1.16-.54 2.12-1.67 2.9zm13.96 398.7v15.5c0 5.85-4.73 10.6-10.58 10.6H24c-5.85 0-10.6-4.75-10.6-10.6v-15.5c0-5.84 4.75-10.57 10.6-10.57h15.5v-.02c5.85 0 10.58 4.75 10.58 10.6zm-3.33-.08c0-3.9-3.15-7.04-7.03-7.04H23.86c-3.88 0-7.03 3.14-7.03 7.04v15.85c0 3.88 3.15 7.03 7.03 7.03h15.82c3.88 0 7.02-3.15 7.02-7.03h.05V432.5zm7.06 58.8v.92c0 .3 0 .58-.04.86-.1.88-.32 1.86-.65 2.7-.25.6-.55 1.18-.9 1.73-1.94 3.05-5.67 5.1-9.3 4.8-1.24-.12-2.48-.33-3.57-.94l-2.17-1.15-1.28 5.77c-.17.8-.9 4.7-.9 4.7h-5.12l.8-3.8c.34-1.8.72-3.6 1.12-5.4l.58-2.68c.16-.73.6-2.32.6-2.32l-3.8-5.9v1.47c0 .88.08 1.7-.1 2.58-.98 4.62-4.45 6.4-5.9 7-3.02 1.26-6.57.84-9.1-1.27-1.73-1.45-3.23-3.38-3.7-5.64-.76-3.6-.28-7.6-.28-11.26v-3.7h4.8V490.48c0 1.47-.08 3.27.7 4.6 1.3 2.25 4.84 3.2 6.9 1.4.54-.52 1.3-1.44 1.5-2.16.25-.9.36-1.94.36-2.88 0-3.75.06-7.5.06-11.28v-.4h4.72l5.02 10.54s.77-1.54.97-2c1.26-2.65 3.45-4.93 6.4-5.55 2-.43 3.78-.42 5.72.27 1.42.53 2.65 1.45 3.75 2.46 1.75 1.6 2.83 4.3 2.83 6.74v-.96.04zm-4.86.34c-.36-2.36-2.73-4.42-5.14-4.27-.25.02-.52.05-.8.1-.54.1-1.06.25-1.44.5-1.93 1.16-2.4 3.4-3 5.4-.1.27-.37 1.6-.4 1.75 0 .05 1.42.93 1.56 1 .56.32 1.14.62 1.74.84 1.75.64 3.97.63 5.48-.6.5-.4 1.05-.97 1.36-1.53.26-.48.46-1.04.56-1.6.1-.48.15-1.08.08-1.6z"/>
</svg>
