<svg xmlns="http://www.w3.org/2000/svg" width="61.5" height="56" viewBox="0 0 61.5 56"><defs><style>.cls-1 { fill: #69696b; fill-rule: evenodd; }</style></defs><path id="Forma_1" d="M44.1 7.33a1.5 1.5 0 0 0-.8-1.16l-11.87-6a1.46 1.46 0 0 0-1.35 0l-11.87 6a1.48 1.48 0 0 0-.8 1.33v10L.84 25.57a1.5 1.5 0 0 0-.12 2.62l10.43 6.26v10.94a1.5 1.5 0 0 0 .82 1.33l18.1 9.15a1.5 1.5 0 0 0 1.34 0l18.1-9.14a1.5 1.5 0 0 0 .82-1.32V34.44l10.43-6.26a1.5 1.5 0 0 0-.13-2.62L44.1 17.5V7.34zm1.45 14.26l-1.44.72v-1.46zM30.75 3.15L39.3 7.5l-8.55 4.33L22.2 7.5zM17.4 20.86v1.46l-1.45-.73zm-12.76 6.2l8-3.8 15.12 7.6-8.02 5.26zm24.6 25.03l-15.1-7.64v-8.23L19 39.16a1.5 1.5 0 0 0 1.6-.03l8.65-5.68V52.1zM30.75 29l-10.37-5.2V9.9l9.7 4.92a1.5 1.5 0 0 0 1.35 0l9.7-4.9V23.8zm16.6 15.44l-15.1 7.63V33.44l8.66 5.68a1.5 1.5 0 0 0 1.58.03l4.87-2.93v8.23zm-5.6-8.34l-8-5.26 15.13-7.6 7.98 3.8z" data-name="Forma 1" class="cls-1"/></svg>