<svg version="1" xmlns="http://www.w3.org/2000/svg" width="21.333" height="21.333" viewBox="0 0 16.000000 16.000000"><path d="M.734 2.47c0 1.651.02 2.472.056 2.477.372.04.382.035.387-.102.02-.693.122-1.386.235-1.62.091-.194.377-.439.662-.561.107-.046.413-.123.678-.173.433-.082.881-.092 4.072-.097h3.582l-.27.316c-.153.178-.296.346-.326.377-.026.03-.133.153-.23.275-.096.122-.25.3-.336.403l-.785.922c-.341.408-.672.795-.728.866-.062.072-.28.337-.49.586-.209.255-.407.48-.438.51-.03.025-.102.112-.158.188-.061.077-.209.26-.341.408-.128.148-.51.601-.851 1.01-.342.407-.683.81-.76.89-.07.088-.244.291-.387.46a10.32 10.32 0 0 1-.28.33c-.015.016-.265.312-.56.663-.291.352-.556.663-.587.693-.025.036-.132.158-.224.275-.097.118-.204.245-.23.276-.03.03-.229.26-.438.514-.208.25-.402.484-.433.515-.025.03-.142.163-.255.3a11.98 11.98 0 0 1-.28.332c-.04.046-.112.127-.153.178-.071.097.051 0 .326-.254.062-.057.23-.204.367-.332.265-.234.928-.83 1.473-1.325l.591-.535c.439-.392 1.172-1.055 1.315-1.187l1.03-.938c.132-.122.83-.749 1.034-.932l.591-.535c.26-.24.53-.48.591-.54.591-.53.917-.826 1.01-.903.086-.076.825-.754 1.07-.978.03-.03.249-.224.489-.433l.51-.459c.147-.137.937-.856 1.06-.958.065-.056.315-.285.56-.51.244-.219.81-.733 1.258-1.136C15.257.727 15.334.63 15.415.187L15.451 0H.734v2.47zm13.912.168c-.199.189-.464.428-.586.54-.122.107-.352.311-.505.46-.153.142-.382.35-.51.458a46.63 46.63 0 0 0-.713.642c-.265.244-.734.667-1.044.948-.306.275-.586.525-.617.555-.117.107-.902.816-.989.892-.05.04-.3.27-.56.51-.26.24-.52.473-.581.524-.102.092-.678.607-.953.857-1.086.993-1.1 1.009-1.447 1.314-.143.123-.367.332-.51.459-.138.127-.484.443-.764.693-.28.255-.52.469-.535.484a43.73 43.73 0 0 1-.561.51c-.296.265-.56.504-.591.535-.03.025-.224.199-.428.382s-.449.398-.535.484c-.092.082-.464.423-.83.75-.674.606-.842.83-.893 1.197L.47 16h14.71v-2.472c0-1.88-.015-2.471-.061-2.476-.036 0-.112-.01-.173-.016a.384.384 0 0 0-.164.016c-.025.015-.06.25-.076.514-.036.581-.117 1.045-.209 1.229-.143.275-.616.59-1.024.677a8.53 8.53 0 0 1-.607.118c-.275.04-7.312.05-7.312.01 0-.03 1.187-1.458 1.625-1.957l.362-.433c.127-.153.245-.29.26-.306.015-.015.153-.173.306-.357.148-.183.295-.356.326-.387.025-.03.143-.168.255-.306.112-.137.275-.326.361-.428.087-.097.862-1.014 1.723-2.038.861-1.025 1.651-1.962 1.753-2.085.102-.117.214-.244.24-.28.03-.03.51-.596 1.065-1.253.555-.658 1.065-1.26 1.13-1.34.225-.25.052-.143-.315.208z"/></svg>